# xmcd
#
# Track frame offsets: 
#        150
#        14284
#        30244
#        48922
#        64415
#        79843
#        96433
#        111290
#        126647
#        144311
#
# Disc length: 2137 seconds
#
# Revision: 0
# Processed by: cddbd v1.5.2PL0 Copyright (c) Steve Scherf et al.
# Submitted via: ExactAudioCopyFreeDBPlugin 1.0
#
DISCID=8708570a
DTITLE=Boom Desjardins - Avec le temps
DYEAR=2011
DGENRE=Slow Rock
TTITLE0=Écoute moi
TTITLE1=Penses-tu à moi
TTITLE2=Pourquoi c'est maintenant
TTITLE3=Je t'aime encore
TTITLE4=Petit Jean
TTITLE5=Une tonne d'amour
TTITLE6=Ce qu'on a fait de nous
TTITLE7=Attends
TTITLE8=Jeter les armes
TTITLE9=Pour tout le temps
EXTD=
EXTT0=
EXTT1=
EXTT2=
EXTT3=
EXTT4=
EXTT5=
EXTT6=
EXTT7=
EXTT8=
EXTT9=
PLAYORDER=
